HIERARCHY
ROOT root
{
	OFFSET 0.000000 0.000000 0.000000
	CHANNELS 6 Xposition Yposition Zposition Zrotation Yrotation Xrotation
	JOINT lhip
	{
		OFFSET 0.058581 -0.082280 -0.017664
		CHANNELS 3 Zrotation Yrotation Xrotation
		JOINT lknee
		{
			OFFSET 0.043451 -0.386469 0.008037
			CHANNELS 3 Zrotation Yrotation Xrotation
			JOINT lankle
			{
				OFFSET -0.014790 -0.426874 -0.037428
				CHANNELS 3 Zrotation Yrotation Xrotation
				JOINT ltoe
				{
					OFFSET 0.041054 -0.060286 0.122042
					CHANNELS 3 Zrotation Yrotation Xrotation
					End Site
					{
						OFFSET 0.000000 0.000000 0.000000
					}
				}
			}
		}
	}
	JOINT rhip
	{
		OFFSET -0.060310 -0.090513 -0.013543
		CHANNELS 3 Zrotation Yrotation Xrotation
		JOINT rknee
		{
			OFFSET -0.043257 -0.383688 -0.004843
			CHANNELS 3 Zrotation Yrotation Xrotation
			JOINT rankle
			{
				OFFSET 0.019056 -0.420046 -0.034562
				CHANNELS 3 Zrotation Yrotation Xrotation
				JOINT rtoe
				{
					OFFSET -0.034840 -0.062106 0.130323
					CHANNELS 3 Zrotation Yrotation Xrotation
					End Site
					{
						OFFSET 0.000000 0.000000 0.000000
					}
				}
			}
		}
	}
	JOINT lowerback
	{
		OFFSET 0.004439 0.124404 -0.038385
		CHANNELS 3 Zrotation Yrotation Xrotation
		JOINT upperback
		{
			OFFSET 0.004488 0.137956 0.026820
			CHANNELS 3 Zrotation Yrotation Xrotation
			JOINT chest
			{
				OFFSET -0.002265 0.056032 0.002855
				CHANNELS 3 Zrotation Yrotation Xrotation
				JOINT lowerneck
				{
					OFFSET -0.013390 0.211636 -0.033468
					CHANNELS 3 Zrotation Yrotation Xrotation
					JOINT upperneck
					{
						OFFSET 0.010113 0.088937 0.050410
						CHANNELS 3 Zrotation Yrotation Xrotation
						End Site
						{
							OFFSET 0.000000 0.000000 0.000000
						}
					}
				}
				JOINT lclavicle
				{
					OFFSET 0.071702 0.114000 -0.018898
					CHANNELS 3 Zrotation Yrotation Xrotation
					JOINT lshoulder
					{
						OFFSET 0.122921 0.045205 -0.019046
						CHANNELS 3 Zrotation Yrotation Xrotation
						JOINT lelbow
						{
							OFFSET 0.255332 -0.015649 -0.022946
							CHANNELS 3 Zrotation Yrotation Xrotation
							JOINT lwrist
							{
								OFFSET 0.265709 0.012698 -0.007375
								CHANNELS 3 Zrotation Yrotation Xrotation
								End Site
								{
									OFFSET 0.000000 0.000000 0.000000
								}
							}
						}
					}
				}
				JOINT rclavicle
				{
					OFFSET -0.082954 0.112472 -0.023707
					CHANNELS 3 Zrotation Yrotation Xrotation
					JOINT rshoulder
					{
						OFFSET -0.113228 0.046853 -0.008472
						CHANNELS 3 Zrotation Yrotation Xrotation
						JOINT relbow
						{
							OFFSET -0.260127 -0.014369 -0.031269
							CHANNELS 3 Zrotation Yrotation Xrotation
							JOINT rwrist
							{
								OFFSET -0.269108 0.006794 -0.006027
								CHANNELS 3 Zrotation Yrotation Xrotation
								End Site
								{
									OFFSET 0.000000 0.000000 0.000000
								}
							}
						}
					}
				}
			}
		}
	}
}
MOTION
Frames: 5
Frame Time: 0.033333
-0.520072 1.628998 1.000486 -71.061383 4.186102 81.810016 3.155236 -3.315565 -4.255671 -7.139943 0.353246 45.123327 3.200578 11.375106 -18.677591 0.000000 -0.000000 0.000000 3.472204 -3.100063 -2.208242 4.188468 -2.943134 9.032491 3.192107 -3.493261 -1.906993 0.000000 -0.000000 0.000000 0.391810 3.402103 10.597974 1.930923 -1.650681 7.605349 -1.397877 -0.741742 6.400079 2.931814 0.796291 12.752629 4.299113 -2.690509 11.126478 -23.536390 8.048544 3.769575 -61.265755 -2.001760 5.861055 12.990107 -24.644321 -1.223747 -2.252271 0.402284 -14.593023 22.948479 -2.937966 -1.049274 60.992358 7.544840 11.203874 -18.771652 32.195639 -5.966959 5.389251 -0.328391 -11.347536 
-0.527229 1.630264 1.001853 -69.544496 3.844864 82.206787 2.519832 -2.961962 -5.097602 -5.353005 1.912279 38.934954 3.737393 12.610302 -19.991591 0.000000 -0.000000 0.000000 3.212265 -3.539070 -1.436119 4.162915 -3.471451 8.104065 3.507676 -4.002037 -1.924833 0.000000 -0.000000 0.000000 0.732735 3.916020 11.287766 1.436607 -1.119583 7.019577 -1.392105 -0.316562 6.650971 2.390775 0.682937 12.589003 4.069569 -2.839878 11.521430 -23.429183 7.673697 3.275509 -61.675283 -2.451489 6.242419 13.093538 -25.196394 -1.307189 -1.842165 0.063287 -14.659414 22.395821 -2.108384 -1.067600 60.688981 8.458823 11.412238 -18.659775 32.423914 -6.638138 4.641826 -0.105968 -10.975734 
-0.535252 1.630390 1.002643 -67.197420 3.879696 82.571775 2.191335 -2.524409 -5.123526 -3.800005 2.986885 32.290110 4.755848 13.959300 -19.848323 0.000000 -0.000000 0.000000 3.058213 -4.538662 -0.354372 4.453857 -4.857986 6.932858 3.638609 -4.217439 -2.224502 0.000000 -0.000000 0.000000 1.341953 4.038101 11.389968 1.072888 -0.905214 7.042823 -1.388362 -0.098811 6.703918 2.161416 1.117986 12.306188 3.667773 -2.405629 11.492745 -23.527859 7.494550 2.701331 -61.913582 -2.547061 6.551288 13.211354 -26.083633 -1.037284 -1.792167 0.189608 -14.030188 21.939529 -1.635270 -0.896942 60.472781 9.175745 11.582255 -18.424579 33.197009 -6.914282 3.880082 0.208796 -10.869875 
-0.542094 1.630260 1.002703 -65.627511 3.609388 82.986511 1.723002 -1.268315 -4.476294 -2.710319 4.325322 25.607240 5.545323 15.065176 -20.021808 0.000000 -0.000000 0.000000 2.553647 -4.771884 0.077000 4.742462 -5.821639 6.637958 4.096688 -4.281181 -3.018056 0.000000 -0.000000 0.000000 1.428636 4.295500 11.339791 0.647332 -0.391367 6.919063 -1.263600 0.192970 6.428459 1.922698 1.873637 11.792122 3.720589 -1.449831 12.134274 -23.554631 7.177880 2.787093 -62.518777 -2.611863 6.453332 13.741697 -26.496912 -1.339473 -1.431198 0.043939 -13.535550 21.736163 -1.068013 -0.369429 60.308101 9.627386 11.415790 -18.796735 34.385397 -7.194002 5.312551 0.415397 -10.677045 
-0.549215 1.629684 1.002666 -62.912876 3.739258 83.592283 1.987434 -0.190521 -3.937152 -2.232605 6.198115 20.503288 5.880289 15.543441 -19.202174 0.000000 -0.000000 0.000000 2.693415 -5.290537 0.639969 4.798174 -7.170873 5.803492 3.908136 -5.141632 -3.366198 0.000000 -0.000000 0.000000 1.552630 4.045299 11.009833 0.607113 -0.405982 6.489328 -1.195822 0.227455 6.553920 1.553999 1.937875 11.917447 2.946178 -1.627065 12.902035 -23.417707 7.614743 2.540799 -62.807332 -2.665251 6.663784 13.311459 -26.939181 -1.008612 -0.652752 0.069446 -13.425611 21.610920 -1.359959 -0.682878 60.695174 9.880734 12.049496 -18.875435 35.733236 -7.417951 3.716931 0.668558 -10.473837 
